<svg xmlns="http://www.w3.org/2000/svg" width="500" height="500" viewBox="0 0 500 500">
  <g id="Group_25" data-name="Group 25" transform="translate(-1707.757 -212)">
    <rect id="Rectangle_405" data-name="Rectangle 405" width="500" height="500" transform="translate(1707.757 212)" fill="none"/>
    <g id="Group_24" data-name="Group 24" transform="translate(1747.209 234.49)">
      <rect id="Rectangle_394" data-name="Rectangle 394" width="12.61" height="190.536" transform="translate(0 133.033)" fill="#ff851f"/>
      <rect id="Rectangle_395" data-name="Rectangle 395" width="12.61" height="335.158" transform="translate(51.065 60.938)" fill="#ff851f"/>
      <rect id="Rectangle_396" data-name="Rectangle 396" width="12.61" height="407.25" transform="translate(102.134 25.318)" fill="#ff851f"/>
      <rect id="Rectangle_397" data-name="Rectangle 397" width="12.61" height="190.536" transform="translate(408.822 134.319)" fill="#ff851f"/>
      <rect id="Rectangle_398" data-name="Rectangle 398" width="12.61" height="335.158" transform="translate(357.757 61.796)" fill="#ff851f"/>
      <rect id="Rectangle_399" data-name="Rectangle 399" width="12.61" height="407.25" transform="translate(306.688 25.318)" fill="#ff851f"/>
      <path id="Path_65" data-name="Path 65" d="M258.22,200.371H143.049V1.814h12.606V187.761H245.61V1.814h12.61Z" transform="translate(10.581 3.765)" fill="#ff851f"/>
      <rect id="Rectangle_400" data-name="Rectangle 400" width="12.61" height="163.502" transform="translate(205.125)" fill="#ff851f"/>
      <path id="Path_66" data-name="Path 66" d="M258.22,280.972H245.61V95.025H155.655V280.972H143.049V82.415H258.22Z" transform="translate(10.581 171.052)" fill="#ff851f"/>
      <rect id="Rectangle_401" data-name="Rectangle 401" width="12.61" height="163.502" transform="translate(204.695 294.1)" fill="#ff851f"/>
    </g>
  </g>
</svg>
