<svg xmlns="http://www.w3.org/2000/svg" xmlns:xlink="http://www.w3.org/1999/xlink" width="144" height="120" viewBox="0 0 144 120">
  <defs>
    <clipPath id="clip-path">
      <rect id="Rectangle_375" data-name="Rectangle 375" width="144" height="120" transform="translate(2278 692)" fill="#fff" stroke="#707070" stroke-width="1"/>
    </clipPath>
    <clipPath id="clip-path-2">
      <rect id="Rectangle_374" data-name="Rectangle 374" width="119.726" height="91.469" fill="none"/>
    </clipPath>
  </defs>
  <g id="Mask_Group_52" data-name="Mask Group 52" transform="translate(-2278 -692)" clip-path="url(#clip-path)">
    <g id="Group_16" data-name="Group 16" transform="translate(2290 706)">
      <rect id="Rectangle_363" data-name="Rectangle 363" width="1.526" height="23.063" transform="translate(34.657 16.103)" fill="#ff851f"/>
      <rect id="Rectangle_364" data-name="Rectangle 364" width="1.526" height="40.569" transform="translate(40.838 7.376)" fill="#ff851f"/>
      <rect id="Rectangle_365" data-name="Rectangle 365" width="1.526" height="49.296" transform="translate(47.02 3.065)" fill="#ff851f"/>
      <rect id="Rectangle_366" data-name="Rectangle 366" width="1.526" height="23.063" transform="translate(84.143 16.259)" fill="#ff851f"/>
      <rect id="Rectangle_367" data-name="Rectangle 367" width="1.526" height="40.569" transform="translate(77.962 7.48)" fill="#ff851f"/>
      <rect id="Rectangle_368" data-name="Rectangle 368" width="1.526" height="49.296" transform="translate(71.78 3.065)" fill="#ff851f"/>
      <path id="Path_9" data-name="Path 9" d="M156.99,25.848H143.049V1.814h1.526V24.322h10.889V1.814h1.526Z" transform="translate(-89.796 -1.139)" fill="#ff851f"/>
      <rect id="Rectangle_369" data-name="Rectangle 369" width="1.526" height="19.791" transform="translate(59.487)" fill="#ff851f"/>
      <path id="Path_10" data-name="Path 10" d="M156.99,106.449h-1.526V83.941H144.575v22.508h-1.526V82.415H156.99Z" transform="translate(-89.796 -51.734)" fill="#ff851f"/>
      <rect id="Rectangle_370" data-name="Rectangle 370" width="1.526" height="19.791" transform="translate(59.435 35.599)" fill="#ff851f"/>
      <g id="Group_14" data-name="Group 14">
        <g id="Group_13" data-name="Group 13" clip-path="url(#clip-path-2)">
          <path id="Path_11" data-name="Path 11" d="M38.072,234.564a1.384,1.384,0,0,0-.515-.359,2.02,2.02,0,0,0-.8-.173,1.874,1.874,0,0,0-.7.135,1.782,1.782,0,0,0-.59.376,1.67,1.67,0,0,0-.388.558,1.753,1.753,0,0,0-.13.682,1.8,1.8,0,0,0,.077.54,1.5,1.5,0,0,0,.231.454,1.832,1.832,0,0,0,.667.552,1.911,1.911,0,0,0,.854.194,1.586,1.586,0,0,0,.783-.171,2.243,2.243,0,0,0,.45-.32l.329.364a3.635,3.635,0,0,1-.809.471,2.762,2.762,0,0,1-.8.116A2.46,2.46,0,0,1,35.4,237.6a2.229,2.229,0,0,1-.753-.784,2.058,2.058,0,0,1-.26-1.022,2.185,2.185,0,0,1,.174-.883,2.126,2.126,0,0,1,.531-.722,2.329,2.329,0,0,1,.764-.463,2.638,2.638,0,0,1,.915-.154,2.352,2.352,0,0,1,1.607.595l-.307.4Z" transform="translate(-21.586 -146.616)" fill="#222c22"/>
          <path id="Path_12" data-name="Path 12" d="M50.028,233.973h.414v2.616a1.58,1.58,0,0,0,.222.936.961.961,0,0,0,1.393,0,1.577,1.577,0,0,0,.222-.936v-2.616h.416v2.616a2.049,2.049,0,0,1-.332,1.277,1.394,1.394,0,0,1-2,0,2.045,2.045,0,0,1-.332-1.277v-2.616Z" transform="translate(-31.404 -146.871)" fill="#222c22"/>
          <path id="Path_13" data-name="Path 13" d="M63.1,235.674a1.346,1.346,0,0,1,.579.465,1.2,1.2,0,0,1,.195.686,1.283,1.283,0,0,1-.345.935,1.218,1.218,0,0,1-.914.354,1.2,1.2,0,0,1-.779-.254,1.268,1.268,0,0,1-.424-.722l.424-.224a1.157,1.157,0,0,0,.283.578.672.672,0,0,0,.5.2.769.769,0,0,0,.569-.217.761.761,0,0,0,.217-.564.81.81,0,0,0-.152-.49,1.159,1.159,0,0,0-.458-.351l-.478-.218a1.369,1.369,0,0,1-.584-.451,1.126,1.126,0,0,1-.192-.66.972.972,0,0,1,.312-.74,1.115,1.115,0,0,1,.795-.293,1.139,1.139,0,0,1,.614.161,1.067,1.067,0,0,1,.4.474l-.386.264a1.064,1.064,0,0,0-.3-.363.615.615,0,0,0-.37-.119.576.576,0,0,0-.431.172.654.654,0,0,0-.039.827,1.073,1.073,0,0,0,.4.29l.561.264Z" transform="translate(-38.552 -146.703)" fill="#222c22"/>
          <path id="Path_14" data-name="Path 14" d="M248.259,235.674a1.346,1.346,0,0,1,.579.465,1.2,1.2,0,0,1,.195.686,1.283,1.283,0,0,1-.345.935,1.218,1.218,0,0,1-.914.354,1.2,1.2,0,0,1-.779-.254,1.268,1.268,0,0,1-.424-.722l.424-.224a1.158,1.158,0,0,0,.283.578.672.672,0,0,0,.5.2.769.769,0,0,0,.569-.217.761.761,0,0,0,.217-.564.81.81,0,0,0-.152-.49,1.159,1.159,0,0,0-.458-.351l-.478-.218a1.369,1.369,0,0,1-.584-.451,1.126,1.126,0,0,1-.192-.66.972.972,0,0,1,.312-.74,1.115,1.115,0,0,1,.795-.293,1.14,1.14,0,0,1,.614.161,1.067,1.067,0,0,1,.4.474l-.386.264a1.064,1.064,0,0,0-.3-.363.615.615,0,0,0-.37-.119.576.576,0,0,0-.431.172.654.654,0,0,0-.039.827,1.073,1.073,0,0,0,.4.29l.561.264Z" transform="translate(-154.779 -146.703)" fill="#222c22"/>
          <path id="Path_15" data-name="Path 15" d="M72.176,238.177V234.45h-.917v-.477h2.428v.477h-.969v3.727Z" transform="translate(-44.731 -146.871)" fill="#222c22"/>
          <path id="Path_16" data-name="Path 16" d="M85.6,235.925a2.186,2.186,0,0,1-.167.85,2.121,2.121,0,0,1-.487.709,2.291,2.291,0,0,1-3.19,0,2.136,2.136,0,0,1-.659-1.559,2.183,2.183,0,0,1,.168-.851,2.145,2.145,0,0,1,.491-.714,2.231,2.231,0,0,1,.731-.474,2.32,2.32,0,0,1,1.726,0,2.243,2.243,0,0,1,.733.474,2.118,2.118,0,0,1,.487.711,2.2,2.2,0,0,1,.167.854Zm-2.252,1.734a1.684,1.684,0,0,0,.658-.131,1.742,1.742,0,0,0,.563-.38,1.7,1.7,0,0,0,.507-1.223,1.757,1.757,0,0,0-.131-.672,1.706,1.706,0,0,0-.376-.563,1.742,1.742,0,0,0-1.887-.376,1.655,1.655,0,0,0-.556.376,1.726,1.726,0,0,0-.507,1.235,1.714,1.714,0,0,0,.128.66,1.785,1.785,0,0,0,.941.945,1.694,1.694,0,0,0,.658.13Z" transform="translate(-50.906 -146.712)" fill="#222c22"/>
          <path id="Path_17" data-name="Path 17" d="M98.763,238.476l-1.4-3.02-.567,2.857h-.523l.844-4.034a.112.112,0,0,1,.212-.023l1.435,3.165,1.435-3.165a.112.112,0,0,1,.212.023l.844,4.034h-.523l-.573-2.857-1.4,3.02Z" transform="translate(-60.433 -147.007)" fill="#222c22"/>
          <path id="Path_18" data-name="Path 18" d="M123.039,238.476l-1.4-3.02-.567,2.857h-.523l.844-4.034a.112.112,0,0,1,.212-.023l1.435,3.165,1.435-3.165a.112.112,0,0,1,.212.023l.844,4.034h-.523l-.573-2.857-1.395,3.02Z" transform="translate(-75.671 -147.007)" fill="#222c22"/>
          <rect id="Rectangle_371" data-name="Rectangle 371" width="0.536" height="4.204" transform="translate(51.271 87.102)" fill="#222c22"/>
          <path id="Path_19" data-name="Path 19" d="M143.539,238.177v-4.2h.536V237.7h1.7v.477h-2.239Z" transform="translate(-90.103 -146.871)" fill="#222c22"/>
          <path id="Path_20" data-name="Path 20" d="M152.807,238.177v-4.2h.536V237.7h1.7v.477h-2.239Z" transform="translate(-95.921 -146.871)" fill="#222c22"/>
          <rect id="Rectangle_372" data-name="Rectangle 372" width="0.536" height="4.204" transform="translate(60.326 87.102)" fill="#222c22"/>
          <path id="Path_21" data-name="Path 21" d="M168.075,238.174v-4.108a.1.1,0,0,1,.171-.063l2.715,3.161v-3.193h.447v4.108a.1.1,0,0,1-.17.064l-2.715-3.126v3.158h-.447Z" transform="translate(-105.505 -146.869)" fill="#222c22"/>
          <path id="Path_22" data-name="Path 22" d="M183.409,235.847h1.86v.141a2.06,2.06,0,0,1-.6,1.568,2.292,2.292,0,0,1-1.648.574,2.822,2.822,0,0,1-.605-.063,2.3,2.3,0,0,1-.531-.184,2.081,2.081,0,0,1-.856-.785,2.162,2.162,0,0,1-.3-1.139,2.408,2.408,0,0,1,.18-.949,2.094,2.094,0,0,1,1.252-1.153,2.744,2.744,0,0,1,.893-.138,2.672,2.672,0,0,1,1.127.22,1.974,1.974,0,0,1,.791.662l-.45.336a1.6,1.6,0,0,0-.607-.573,1.787,1.787,0,0,0-.844-.191,1.717,1.717,0,0,0-1.275.494,1.756,1.756,0,0,0-.49,1.292,1.643,1.643,0,0,0,.5,1.234,1.745,1.745,0,0,0,1.267.482,1.684,1.684,0,0,0,1.129-.383,1.4,1.4,0,0,0,.5-1h-1.287v-.448Z" transform="translate(-113.445 -146.712)" fill="#222c22"/>
          <path id="Path_23" data-name="Path 23" d="M206.189,238.216l-.434-.488a2.116,2.116,0,0,1-.641.424,1.879,1.879,0,0,1-.73.142,1.4,1.4,0,0,1-.967-.33,1.132,1.132,0,0,1-.112-1.555,2.482,2.482,0,0,1,.778-.6l-.185-.193a1.178,1.178,0,0,1-.219-.333.941.941,0,0,1-.071-.367.8.8,0,0,1,.288-.636,1.112,1.112,0,0,1,.747-.245,1.1,1.1,0,0,1,.744.241.8.8,0,0,1,.278.64.891.891,0,0,1-.2.561,2.062,2.062,0,0,1-.624.493l.982,1.106c.082-.084.167-.181.256-.289s.182-.23.28-.366l.33.336a4.18,4.18,0,0,1-.276.349,3.5,3.5,0,0,1-.3.3l.721.807h-.65Zm-.733-.83-1.09-1.229-.132.083a1.944,1.944,0,0,0-.51.425.694.694,0,0,0-.14.422.727.727,0,0,0,.236.554.828.828,0,0,0,.59.221,1.214,1.214,0,0,0,.5-.115A2.368,2.368,0,0,0,205.456,237.386Zm-.9-1.745.2-.106a.966.966,0,0,0,.316-.272.572.572,0,0,0,.106-.333.445.445,0,0,0-.145-.346.555.555,0,0,0-.385-.131.536.536,0,0,0-.382.138.459.459,0,0,0-.147.35.54.54,0,0,0,.041.207.617.617,0,0,0,.122.187l.277.307Z" transform="translate(-127.459 -146.91)" fill="#222c22"/>
          <path id="Path_24" data-name="Path 24" d="M223.174,238.177v-4.2h.865a6.9,6.9,0,0,1,1.354.09,1.9,1.9,0,0,1,.688.3,1.781,1.781,0,0,1,.588.712,2.591,2.591,0,0,1,0,1.994,1.762,1.762,0,0,1-.59.711,1.893,1.893,0,0,1-.673.3,5.513,5.513,0,0,1-1.175.09h-1.06Zm.542-.471h.342a6.519,6.519,0,0,0,1.152-.068,1.3,1.3,0,0,0,.533-.231,1.372,1.372,0,0,0,.422-.555,2.174,2.174,0,0,0,0-1.556,1.372,1.372,0,0,0-.424-.552,1.314,1.314,0,0,0-.541-.237,6.321,6.321,0,0,0-1.144-.07h-.342v3.27Z" transform="translate(-140.092 -146.871)" fill="#222c22"/>
          <path id="Path_25" data-name="Path 25" d="M236.814,238.177v-4.2h2.378v.457H237.35v1.206h1.842v.465H237.35v1.611h1.842v.465Z" transform="translate(-148.655 -146.871)" fill="#222c22"/>
          <rect id="Rectangle_373" data-name="Rectangle 373" width="0.536" height="4.204" transform="translate(95.704 87.102)" fill="#222c22"/>
          <path id="Path_26" data-name="Path 26" d="M265.119,235.847h1.86v.141a2.06,2.06,0,0,1-.6,1.568,2.292,2.292,0,0,1-1.648.574,2.822,2.822,0,0,1-.605-.063,2.3,2.3,0,0,1-.531-.184,2.082,2.082,0,0,1-.856-.785,2.162,2.162,0,0,1-.3-1.139,2.408,2.408,0,0,1,.18-.949,2.094,2.094,0,0,1,1.252-1.153,2.744,2.744,0,0,1,.893-.138,2.672,2.672,0,0,1,1.127.22,1.973,1.973,0,0,1,.791.662l-.45.336a1.6,1.6,0,0,0-.607-.573,1.787,1.787,0,0,0-.844-.191,1.717,1.717,0,0,0-1.275.494,1.755,1.755,0,0,0-.49,1.292,1.643,1.643,0,0,0,.5,1.234,1.745,1.745,0,0,0,1.267.482,1.684,1.684,0,0,0,1.129-.383,1.4,1.4,0,0,0,.5-1h-1.287v-.448Z" transform="translate(-164.736 -146.712)" fill="#222c22"/>
          <path id="Path_27" data-name="Path 27" d="M278.568,238.177v-4.092a.1.1,0,0,1,.182-.068l2.717,3.149v-3.193h.449v4.091a.1.1,0,0,1-.182.068l-2.718-3.114v3.158h-.449Z" transform="translate(-174.865 -146.871)" fill="#222c22"/>
          <path id="Path_28" data-name="Path 28" d="M0,194.786V181.48H1.512v5.446H8.273V181.48H9.811v13.306H8.273v-6.351H1.512v6.351Z" transform="translate(0 -113.92)" fill="#222c22"/>
          <path id="Path_29" data-name="Path 29" d="M35.48,194.786V181.48h7.563v1.445H37.061v3.942h5.982v1.472H37.061v4.974h5.982v1.472H35.48Z" transform="translate(-22.272 -113.92)" fill="#222c22"/>
          <path id="Path_30" data-name="Path 30" d="M66.694,181.453l6.281,13.2H71.107l-1.95-4.169H63.59L61.7,194.649H59.827l6.262-13.2a.335.335,0,0,1,.605,0Zm-.3,2.862-2.117,4.58,4.117-.013Z" transform="translate(-37.555 -113.783)" fill="#222c22"/>
          <path id="Path_31" data-name="Path 31" d="M100.99,194.786V181.48h3.126a19.847,19.847,0,0,1,2.818.194,2.807,2.807,0,0,1,1.074.519,3.039,3.039,0,0,1,1,1.191,4.394,4.394,0,0,1,.327,1.722,3.23,3.23,0,0,1-.914,2.486,5.468,5.468,0,0,1-3.216,1.129h-.282l4.7,6.065h-1.936l-4.58-6.03h-.573v6.03H100.99Zm1.545-11.8v4.28h1.209a7,7,0,0,0,3.278-.419,1.969,1.969,0,0,0,.814-1.784,1.878,1.878,0,0,0-.762-1.645c-.675-.519-2.118-.433-3.33-.433h-1.209Z" transform="translate(-63.394 -113.92)" fill="#222c22"/>
          <path id="Path_32" data-name="Path 32" d="M131.656,194.786v-11.8H128.75V181.48h7.428v1.509h-2.923v11.8h-1.6Z" transform="translate(-80.82 -113.92)" fill="#222c22"/>
          <path id="Path_33" data-name="Path 33" d="M152.308,181.408h1.645l2.563,9.267,3.645-9.1a.341.341,0,0,1,.634,0l3.53,9.163,2.59-9.336H168.5L164.654,194.6a.224.224,0,0,1-.424.018l-3.591-9.307a.154.154,0,0,0-.286,0l-3.766,9.321a.227.227,0,0,1-.428-.022Z" transform="translate(-95.608 -113.848)" fill="#222c22"/>
          <path id="Path_34" data-name="Path 34" d="M215.75,187.655a6.915,6.915,0,0,1-.528,2.69,6.709,6.709,0,0,1-1.537,2.245,7.226,7.226,0,0,1-10.076,0,6.77,6.77,0,0,1-2.083-4.935,6.893,6.893,0,0,1,.532-2.695,6.8,6.8,0,0,1,1.551-2.258,7.064,7.064,0,0,1,2.31-1.5,7.313,7.313,0,0,1,5.452,0,7.057,7.057,0,0,1,2.314,1.5,6.7,6.7,0,0,1,1.537,2.25,6.971,6.971,0,0,1,.528,2.7Zm-7.112,5.49a5.329,5.329,0,0,0,2.078-.413,5.52,5.52,0,0,0,1.778-1.2,5.389,5.389,0,0,0,1.6-3.872,5.551,5.551,0,0,0-.414-2.127,5.42,5.42,0,0,0-5.043-3.381,5.455,5.455,0,0,0-2.1.409,5.217,5.217,0,0,0-1.755,1.191,5.48,5.48,0,0,0-1.192,1.791,5.536,5.536,0,0,0-.409,2.117,5.427,5.427,0,0,0,.4,2.09,5.654,5.654,0,0,0,2.974,2.99A5.335,5.335,0,0,0,208.638,193.144Z" transform="translate(-126.503 -113.415)" fill="#222c22"/>
          <path id="Path_35" data-name="Path 35" d="M259.256,187.655a6.915,6.915,0,0,1-.528,2.69,6.708,6.708,0,0,1-1.537,2.245,7.226,7.226,0,0,1-10.076,0,6.769,6.769,0,0,1-2.083-4.935,6.893,6.893,0,0,1,.532-2.695,6.8,6.8,0,0,1,1.551-2.258,7.064,7.064,0,0,1,2.31-1.5,7.313,7.313,0,0,1,5.452,0,7.056,7.056,0,0,1,2.314,1.5,6.7,6.7,0,0,1,1.537,2.25,6.971,6.971,0,0,1,.527,2.7Zm-7.112,5.49a5.329,5.329,0,0,0,2.078-.413,5.521,5.521,0,0,0,1.778-1.2,5.389,5.389,0,0,0,1.6-3.872,5.551,5.551,0,0,0-.414-2.127,5.42,5.42,0,0,0-5.043-3.381,5.455,5.455,0,0,0-2.1.409,5.217,5.217,0,0,0-1.755,1.191,5.48,5.48,0,0,0-1.192,1.791,5.536,5.536,0,0,0-.41,2.117,5.427,5.427,0,0,0,.4,2.09,5.654,5.654,0,0,0,2.974,2.99A5.335,5.335,0,0,0,252.144,193.144Z" transform="translate(-153.813 -113.415)" fill="#222c22"/>
          <path id="Path_36" data-name="Path 36" d="M291.174,194.886V181.48h2.554a18.946,18.946,0,0,1,3.994.287,7.094,7.094,0,0,1,2.34,1.074,5.5,5.5,0,0,1,1.852,2.138,8.759,8.759,0,0,1,0,6.312,5.832,5.832,0,0,1-1.741,2.35,7.551,7.551,0,0,1-2.41.959,15.172,15.172,0,0,1-3.467.287Zm1.513-1.491h1.1a17.966,17.966,0,0,0,3.4-.214,5.844,5.844,0,0,0,2-.832,4.367,4.367,0,0,0,1.3-1.742,6.771,6.771,0,0,0,.372-2.484,6.608,6.608,0,0,0-.423-2.458,4.222,4.222,0,0,0-1.366-1.633,5.275,5.275,0,0,0-1.9-.866,18.467,18.467,0,0,0-3.472-.223h-1.009Z" transform="translate(-182.778 -113.92)" fill="#222c22"/>
        </g>
      </g>
    </g>
  </g>
</svg>
