<svg xmlns="http://www.w3.org/2000/svg" width="166" height="115" viewBox="0 0 166 115">
  <g id="Group_32" data-name="Group 32" transform="translate(-3346 -6210)">
    <g id="Rectangle_432" data-name="Rectangle 432" transform="translate(3346 6210)" fill="#eed8c6" stroke="#707070" stroke-width="1">
      <rect width="166" height="115" stroke="none"/>
      <rect x="0.5" y="0.5" width="165" height="114" fill="none"/>
    </g>
    <path id="Path_1" data-name="Path 1" d="M3.74-13.78H1.92V0H9.38V-1.68H3.74ZM15.3.24a4.788,4.788,0,0,0,4.9-4.92,4.772,4.772,0,0,0-4.9-4.9,4.755,4.755,0,0,0-4.88,4.9A4.772,4.772,0,0,0,15.3.24Zm0-1.64a3.138,3.138,0,0,1-3.12-3.28A3.133,3.133,0,0,1,15.3-7.94a3.153,3.153,0,0,1,3.16,3.26A3.158,3.158,0,0,1,15.3-1.4ZM30-7.88a3.8,3.8,0,0,0-3.34-1.7A4.639,4.639,0,0,0,22-4.68,4.683,4.683,0,0,0,26.68.24,3.882,3.882,0,0,0,30-1.46v.28c0,3.16-1.28,4.32-3.34,4.32A3.148,3.148,0,0,1,23.94,1.5l-1.48.78a4.741,4.741,0,0,0,4.2,2.5c3.08,0,5.08-1.66,5.08-6.08V-9.34H30ZM26.82-1.4a3.157,3.157,0,0,1-3.06-3.3,3.092,3.092,0,0,1,3.06-3.24A3.2,3.2,0,0,1,30-4.7,3.178,3.178,0,0,1,26.82-1.4ZM39.02.24a4.788,4.788,0,0,0,4.9-4.92,4.772,4.772,0,0,0-4.9-4.9,4.755,4.755,0,0,0-4.88,4.9A4.772,4.772,0,0,0,39.02.24Zm0-1.64A3.138,3.138,0,0,1,35.9-4.68a3.133,3.133,0,0,1,3.12-3.26,3.153,3.153,0,0,1,3.16,3.26A3.158,3.158,0,0,1,39.02-1.4Z" transform="translate(3407.198 6276)"/>
  </g>
</svg>
